<?xml version="1.0" encoding="utf-8"?>
<!-- Generator: Adobe Illustrator 26.0.2, SVG Export Plug-In . SVG Version: 6.00 Build 0)  -->
<svg version="1.1" id="Layer_1" xmlns="http://www.w3.org/2000/svg" xmlns:xlink="http://www.w3.org/1999/xlink" x="0px" y="0px"
	 viewBox="0 0 50 50" style="enable-background:new 0 0 50 50;" xml:space="preserve">
<style type="text/css">
	.st0{fill:#263348;}
</style>
<g>
	<path class="st0" d="M39.5,14.2c-0.3-0.9-0.7-1.5-1.4-2.1c-0.7-0.6-1.3-1.1-2.1-1.4c-0.7-0.3-1.6-0.6-3.4-0.6
		c-2-0.1-2.5-0.1-7.5-0.1s-5.5,0-7.5,0.1c-1.8,0.1-2.8,0.4-3.4,0.6C13.2,11,12.6,11.4,12,12c-0.6,0.7-1.1,1.3-1.4,2.1
		c-0.3,0.7-0.6,1.6-0.6,3.4c-0.1,2-0.1,2.5-0.1,7.5s0,5.5,0.1,7.5c0.1,1.8,0.4,2.8,0.6,3.4c0.3,0.9,0.7,1.5,1.4,2.1
		c0.7,0.6,1.3,1.1,2.1,1.4c0.7,0.3,1.6,0.6,3.4,0.6v0c2,0.1,2.5,0.1,7.5,0.1s5.5,0,7.5-0.1c1.8-0.1,2.8-0.4,3.4-0.6
		c0.9-0.3,1.5-0.7,2.1-1.4c0.6-0.6,1.1-1.3,1.4-2.1c0.3-0.7,0.6-1.6,0.6-3.4c0.1-2,0.1-2.5,0.1-7.5c0-5,0-5.5-0.1-7.5
		C40.1,15.8,39.8,14.8,39.5,14.2z M25.1,34.6c-5.3,0-9.5-4.3-9.5-9.5h0c0-5.3,4.3-9.5,9.5-9.5s9.5,4.3,9.5,9.5
		C34.6,30.4,30.3,34.6,25.1,34.6z M37.2,15.6c-0.1,0.4-0.3,0.8-0.6,1.1c-0.3,0.3-0.7,0.5-1.1,0.6c-0.4,0.1-0.9,0-1.3-0.1
		c-0.4-0.2-0.8-0.5-1-0.8c-0.2-0.4-0.4-0.8-0.4-1.2c0-0.6,0.2-1.2,0.7-1.6c0.4-0.4,1-0.7,1.6-0.7h0c0.4,0,0.9,0.1,1.2,0.4
		c0.4,0.2,0.7,0.6,0.8,1C37.2,14.7,37.2,15.2,37.2,15.6z"/>
	<path class="st0" d="M25.1,18.9c-3.4,0-6.2,2.8-6.2,6.2c0,3.4,2.8,6.2,6.2,6.2s6.2-2.8,6.2-6.2C31.2,21.7,28.5,18.9,25.1,18.9z"/>
	<path class="st0" d="M49.8,12.7c-0.1-3-0.6-4.6-1-5.7c-0.6-1.4-1.2-2.4-2.3-3.5c-1.1-1.1-2.1-1.7-3.5-2.3c-1.1-0.4-2.7-0.9-5.7-1
		C34.1,0,33.1,0,25,0c-8.1,0-9.1,0-12.3,0.2c-3,0.1-4.6,0.6-5.7,1C5.6,1.8,4.6,2.4,3.5,3.5C2.4,4.6,1.8,5.6,1.2,7
		c-0.4,1.1-0.9,2.7-1,5.7C0,15.9,0,16.9,0,25c0,8.1,0,9.1,0.2,12.3c0.1,3,0.6,4.6,1,5.7c0.6,1.4,1.2,2.4,2.3,3.5s2.1,1.7,3.5,2.3
		c1.1,0.4,2.7,0.9,5.7,1C15.9,50,16.9,50,25,50c8.1,0,9.1,0,12.3-0.2c3-0.1,4.6-0.6,5.7-1c1.4-0.6,2.4-1.2,3.5-2.3
		c1.1-1.1,1.7-2.1,2.3-3.5c0.4-1.1,0.9-2.7,1-5.7C50,34.1,50,33.1,50,25C50,16.9,50,15.9,49.8,12.7z M43.5,32.8
		c-0.1,2-0.4,3.3-0.9,4.5c-0.5,1.2-1.1,2.3-2.1,3.3c-1,1-2.1,1.7-3.3,2.1c-1.2,0.5-2.5,0.8-4.5,0.9c-2,0.1-2.6,0.1-7.7,0.1
		s-5.7,0-7.7-0.1c-2-0.1-3.3-0.4-4.5-0.9c-1.2-0.5-2.3-1.1-3.3-2.1c-1-1-1.7-2.1-2.1-3.3c-0.5-1.2-0.8-2.5-0.9-4.5
		c-0.1-2-0.1-2.6-0.1-7.7c0-5,0-5.7,0.1-7.7c0.1-2,0.4-3.3,0.9-4.5c0.5-1.2,1.1-2.3,2.1-3.3s2.1-1.7,3.3-2.1
		c1.2-0.5,2.5-0.8,4.5-0.9h0c2-0.1,2.6-0.1,7.7-0.1s5.7,0,7.7,0.1c2,0.1,3.3,0.4,4.5,0.9c1.2,0.5,2.3,1.1,3.3,2.1
		c1,1,1.7,2.1,2.1,3.3c0.5,1.2,0.8,2.5,0.9,4.5c0.1,2,0.1,2.6,0.1,7.7C43.6,30.2,43.6,30.8,43.5,32.8z"/>
</g>
</svg>
