<svg width="54" height="50" viewBox="0 0 54 50" fill="none" xmlns="http://www.w3.org/2000/svg">
<g clip-path="url(#clip0_9_26)">
<path d="M0.553009 5.80856C0.553009 4.12503 1.14401 2.73614 2.32596 1.6419C3.50791 0.547609 5.0445 0.000488281 6.93563 0.000488281C8.79303 0.000488281 10.2958 0.539174 11.444 1.61665C12.6259 2.72776 13.2169 4.17553 13.2169 5.96007C13.2169 7.57623 12.6429 8.923 11.4946 10.0005C10.3127 11.1116 8.75924 11.6671 6.83432 11.6671H6.78366C4.92627 11.6671 3.42352 11.1116 2.2753 10.0005C1.12709 8.88936 0.553009 7.49204 0.553009 5.80856ZM1.21153 50.0004V16.2631H12.4571V50.0004H1.21153ZM18.6878 50.0004H29.9333V31.1621C29.9333 29.9836 30.0684 29.0745 30.3386 28.4348C30.8113 27.29 31.529 26.322 32.4914 25.5308C33.4539 24.7395 34.6612 24.3439 36.1133 24.3439C39.8956 24.3439 41.7868 26.886 41.7868 31.9701V50.0004H53.0323V30.657C53.0323 25.6738 51.8504 21.8944 49.4864 19.3186C47.1225 16.7429 43.9988 15.455 40.1151 15.455C35.7587 15.455 32.3648 17.3237 29.9333 21.0611V21.1621H29.8827L29.9333 21.0611V16.2631H18.6878C18.7553 17.3405 18.7891 20.6907 18.7891 26.3136C18.7891 31.9364 18.7553 39.832 18.6878 50.0004Z" fill="#263348"/>
</g>
<defs>
<clipPath id="clip0_9_26">
<rect width="52.4793" height="50" fill="white" transform="translate(0.553009)"/>
</clipPath>
</defs>
</svg>
