<svg width="170" height="150" viewBox="0 0 170 150" fill="none" xmlns="http://www.w3.org/2000/svg">
<path d="M154.851 132.833C158.542 128.304 161.376 123.205 163.359 117.541C165.337 111.88 166.33 106.056 166.33 100.075C166.33 91.5592 164.46 83.5397 160.725 76.0167C156.989 68.4975 151.452 62.4244 144.116 57.803C136.777 53.1816 127.931 50.8709 117.58 50.8709C107.224 50.8709 98.3803 53.1816 91.0446 57.803C90.1874 58.3429 89.3602 58.9074 88.5518 59.4851V0.552826H82.4747L44.3876 43.2328L6.30431 0.552826H0.0921326V99.2332H19.674V44.9998L44.3876 71.0971L69.0994 44.9998L68.9681 99.2332H68.9775C68.9756 99.4239 68.9625 99.6127 68.9625 99.8052C68.9625 108.323 70.8063 116.32 74.4994 123.796C78.1907 131.271 83.7033 137.32 91.0427 141.941C98.3784 146.563 107.224 148.874 117.578 148.874C126.671 148.874 134.639 147.107 141.481 143.573L146.208 149.145H167.545L154.851 132.833ZM141.886 116.114L135.134 107.415H112.313L128.518 127.396C125.277 128.666 121.631 129.299 117.58 129.299C111.637 129.299 106.526 127.921 102.252 125.155C97.9751 122.391 94.7565 118.765 92.5958 114.279C90.4369 109.794 89.3546 105.016 89.3546 99.9411C89.3546 94.8667 90.435 90.0867 92.5958 85.6012C94.7565 81.1158 97.9751 77.493 102.252 74.7273C106.526 71.9636 111.637 70.5817 117.58 70.5817C123.612 70.5817 128.766 71.9881 133.042 74.7953C137.317 77.6063 140.538 81.2517 142.698 85.7371C144.857 90.2226 145.939 95.0026 145.939 100.077C145.938 105.967 144.589 111.313 141.886 116.114Z" fill="#263348"/>
</svg>
