<svg width="62" height="50" viewBox="0 0 62 50" fill="none" xmlns="http://www.w3.org/2000/svg">
<path d="M19.7161 49.8997C42.7269 49.8997 55.3106 30.7283 55.3106 14.1034C55.3106 13.559 55.2996 13.017 55.2752 12.4773C57.7237 10.6956 59.8369 8.48947 61.5155 5.96247C59.2739 6.96468 56.8618 7.63921 54.3313 7.94333C56.9142 6.38583 58.897 3.92181 59.8326 0.984724C57.3768 2.44977 54.6903 3.48255 51.8887 4.03855C49.6058 1.5931 46.3558 0.0636292 42.757 0.0636292C35.8484 0.0636292 30.2461 5.69784 30.2461 12.6429C30.2461 13.6303 30.356 14.5903 30.5707 15.5116C20.1732 14.9854 10.9535 9.97914 4.78317 2.3668C3.67184 4.28678 3.0873 6.46888 3.08924 8.69025C3.08924 13.0551 5.29775 16.9083 8.65637 19.1627C6.6697 19.1017 4.72665 18.562 2.99059 17.5891C2.98873 17.6419 2.98873 17.6934 2.98873 17.7498C2.98873 23.8427 7.3009 28.9298 13.0252 30.0825C11.9501 30.377 10.8407 30.5258 9.72641 30.5252C8.92171 30.5252 8.13745 30.4456 7.37526 30.2984C8.96794 35.2972 13.5862 38.9349 19.0618 39.0366C14.78 42.4116 9.38621 44.4218 3.524 44.4218C2.52677 44.4227 1.53035 44.3645 0.539917 44.2475C6.07655 47.8164 12.6508 49.8988 19.7167 49.8988" fill="#263348"/>
</svg>
